<svg id="Layer_1" data-name="Layer 1" xmlns="http://www.w3.org/2000/svg" viewBox="0 0 543 502"><defs><style>.cls-1{fill:#fff;}.cls-2{fill:#ff9300;}</style></defs><polygon class="cls-1" points="397.81 473 144.35 473 17.62 253.5 144.35 34 397.81 34 524.53 253.5 397.81 473"/><path class="cls-2" d="M166.3,397.08V360h9.28c7.44,0,12.17,3.83,12.17,9.89,0,3.05-1.23,5.22-4.11,7.44a9.49,9.49,0,0,1,6.16,9.11,10,10,0,0,1-4.33,8.45c-2.56,1.72-4.61,2.16-9.83,2.16ZM170,376h4.61c3.38,0,4.94-.28,6.38-1.11a6.12,6.12,0,0,0,3-5.12,6.3,6.3,0,0,0-2.39-4.83c-1.55-1.11-3.5-1.61-6.66-1.61H170Zm0,17.72h5.16c3.39,0,5.33-.28,6.95-1a7.1,7.1,0,0,0,4-6.22,6.81,6.81,0,0,0-4.38-6.34c-1.78-.66-3.17-.83-7.17-.83H170Z"/><rect class="cls-2" x="197.7" y="360.03" width="3.72" height="37.06"/><path class="cls-2" d="M227.37,397.75c-10.72,0-19.61-8.67-19.61-19.11a19.5,19.5,0,0,1,19.61-19.28v3.33a15.87,15.87,0,1,0,0,31.73Z"/><path class="cls-2" d="M231.74,394.42a15.87,15.87,0,1,0,0-31.73v-3.33a19.2,19.2,0,1,1,0,38.39Z"/><polygon class="cls-2" points="260.74 397.08 260.74 363.36 252.24 363.36 252.24 360.03 272.96 360.03 272.96 363.36 264.46 363.36 264.46 397.08 260.74 397.08"/><polygon class="cls-2" points="279.48 397.08 279.48 360.03 299.75 360.03 299.75 363.36 283.2 363.36 283.2 376.69 299.2 376.69 299.2 380.03 283.2 380.03 283.2 393.75 299.75 393.75 299.75 397.08 279.48 397.08"/><path class="cls-2" d="M338.49,387.36h4.11a19.16,19.16,0,1,1-3.56-22.5c2.17,2.11,2.61,2.67,3.45,4.67h-4.17a15.52,15.52,0,0,0-12.83-6.84c-8.39,0-15.61,7.39-15.61,15.95,0,8.39,7.27,15.78,15.61,15.78a16.1,16.1,0,0,0,10.33-4.06,14.7,14.7,0,0,0,2.67-3"/><polygon class="cls-2" points="349.94 397.08 349.94 360.03 353.67 360.03 353.67 376.36 372.88 376.36 372.88 360.03 376.55 360.03 376.55 397.08 372.88 397.08 372.88 379.69 353.67 379.69 353.67 397.08 349.94 397.08"/><path class="cls-2" d="M220.06,403.47h2.66a4.09,4.09,0,0,1,3.55,1.44,4.26,4.26,0,0,1,.86,2.73c0,2.37-1.24,4.2-4.29,4.2h-2.78Zm1.69,6.89h1.18c1.81,0,2.52-1.19,2.52-2.7a3.16,3.16,0,0,0-.57-1.88A2.26,2.26,0,0,0,223,405h-1.2Z"/><polygon class="cls-2" points="230.04 403.47 234.74 403.47 234.74 404.95 231.73 404.95 231.73 406.85 234.68 406.85 234.68 408.33 231.73 408.33 231.73 410.36 234.74 410.36 234.74 411.84 230.04 411.84 230.04 403.47"/><path class="cls-2" d="M237.74,403.47h2.53a4.25,4.25,0,0,1,2.5.53,2.75,2.75,0,0,1,1.07,2.27,2.67,2.67,0,0,1-.46,1.56,2.16,2.16,0,0,1-1.38.91l1.87,3.1H242.1L239.85,408h.33a2.53,2.53,0,0,0,1.5-.31,1.56,1.56,0,0,0,.54-1.22,1.43,1.43,0,0,0-.63-1.21,2.22,2.22,0,0,0-1.18-.26h-1v6.89h-1.68Z"/><polygon class="cls-2" points="246.57 411.84 246.57 403.47 248.85 403.47 251 409.48 253.12 403.47 255.4 403.47 255.4 411.84 253.84 411.84 253.89 405.13 251.54 411.84 250.43 411.84 248.08 405.13 248.12 411.84 246.57 411.84"/><path class="cls-2" d="M259.81,411.84H258l3.39-8.37h1.49l3.31,8.37h-1.84l-.61-1.64h-3.31Zm2.23-6.38-1.19,3.39h2.42Z"/><polygon class="cls-2" points="269.13 404.95 267.32 404.95 267.32 403.47 272.61 403.47 272.61 404.95 270.81 404.95 270.81 411.84 269.13 411.84 269.13 404.95"/><path class="cls-2" d="M274.39,407.72a4.4,4.4,0,1,1,4.38,4.28,4.31,4.31,0,0,1-4.38-4.28Zm1.69-.07a2.71,2.71,0,1,0,2.71-2.86,2.75,2.75,0,0,0-2.71,2.86Z"/><polygon class="cls-2" points="286.12 403.47 287.81 403.47 287.81 410.36 290.56 410.36 290.56 411.84 286.12 411.84 286.12 403.47"/><path class="cls-2" d="M292.24,407.72a4.4,4.4,0,1,1,4.38,4.28,4.3,4.3,0,0,1-4.38-4.28Zm1.68-.07a2.71,2.71,0,1,0,2.72-2.86,2.76,2.76,0,0,0-2.72,2.86Z"/><path class="cls-2" d="M310.19,406a3.1,3.1,0,0,0-.62-.69,2.58,2.58,0,0,0-1.6-.55,2.87,2.87,0,0,0,0,5.73,2.82,2.82,0,0,0,1.66-.51,2.21,2.21,0,0,0,.86-1.27h-3.13v-1.36h5.08a5,5,0,0,1-.38,2.11A4.46,4.46,0,0,1,308,412a4.35,4.35,0,1,1,0-8.69,4.39,4.39,0,0,1,4.1,2.72Z"/><polygon class="cls-2" points="317.2 408.84 314.63 403.47 316.45 403.47 318.04 407.27 319.63 403.47 321.44 403.47 318.89 408.84 318.89 411.84 317.2 411.84 317.2 408.84"/><rect class="cls-2" x="325.76" y="406.9" width="50.67" height="2.06"/><rect class="cls-2" x="166.3" y="406.9" width="50.67" height="2.06"/></svg>